<svg xmlns="http://www.w3.org/2000/svg" xmlns:xlink="http://www.w3.org/1999/xlink" width="1920" zoomAndPan="magnify" viewBox="0 0 1440 809.999993" height="1080" preserveAspectRatio="xMidYMid meet" version="1.0"><path fill="#127396" d="M 501.75 508.386719 C 254.164062 651.054688 294.878906 674.488281 294.878906 389.152344 C 294.878906 103.402344 254.164062 126.835938 501.75 269.507812 C 748.921875 412.585938 748.921875 365.714844 501.75 508.386719 Z M 501.75 508.386719 " fill-opacity="1" fill-rule="evenodd"/><path fill="#cf4a6b" d="M 740.695312 508.386719 C 493.113281 651.054688 533.828125 674.488281 533.828125 389.152344 C 533.828125 103.402344 493.113281 126.835938 740.695312 269.507812 C 987.871094 412.585938 987.871094 365.714844 740.695312 508.386719 Z M 740.695312 508.386719 " fill-opacity="1" fill-rule="evenodd"/><path fill="#2f8fb2" d="M 979.644531 508.386719 C 732.058594 651.054688 772.777344 674.488281 772.777344 389.152344 C 772.777344 103.402344 732.058594 126.835938 979.644531 269.507812 C 1226.820312 412.585938 1226.820312 365.714844 979.644531 508.386719 Z M 979.644531 508.386719 " fill-opacity="1" fill-rule="evenodd"/></svg>